<svg xmlns="http://www.w3.org/2000/svg" height="191.838" width="175.228"><path d="M136.069 68.784c0-30.1 21.241-34.788 21.241-34.788 7.772-3.788.3-8.139.3-8.139s-30.719 2.1-30.719 42.927" fill="#e6e7e8" stroke="#3e4147" stroke-linecap="round" stroke-linejoin="round" stroke-width="3"/><path d="M73.887 54.307l4.268-52.16a67.973 67.973 0 00-9.369-.647 67.284 67.284 0 1067.283 67.284H80.526" fill="#d8e9f7" stroke="#3e4147" stroke-linecap="round" stroke-linejoin="round" stroke-width="3"/><path d="M1.532 67.521l42.675 1.263h36.318l-6.639-14.477 4.268-52.16a67.973 67.973 0 00-9.369-.647A67.272 67.272 0 001.532 67.521z" fill="#86c3e9"/><g stroke="#3e4147" stroke-linecap="round" stroke-linejoin="round" stroke-width="3" transform="translate(-8285.742 -2701.527)"><path d="M8359.629 2755.834l4.268-52.16a67.973 67.973 0 00-9.369-.647 67.284 67.284 0 1067.283 67.284h-55.543M8353.237 2770.311h-65.995" fill="none"/><circle cx="8359.629" cy="2764.48" fill="#d8e9f7" r="8.646"/><circle cx="8450.825" cy="2731.736" fill="#b3cfdb" r="8.646"/><circle cx="8312.164" cy="2869.706" fill="#555556" r="22.159"/><circle cx="8312.165" cy="2869.706" fill="#e6e7e8" r="15.359"/><path d="M8355.839 2756.709l-19.923-51.074M8351.959 2760.489l-41.843-40.722M8350.983 2765.219l-58.811-20.227M8317.987 2848.323l8.257-16.948M8325.265 2851.835l8.095-17.64" fill="none"/><circle cx="8396.889" cy="2869.706" fill="#555556" r="22.159"/><circle cx="8396.89" cy="2869.706" fill="#e6e7e8" r="15.359"/><path d="M8391.066 2848.323l-8.257-16.948M8383.789 2851.835l-8.095-17.64" fill="none"/></g></svg>
