<svg fill="none" height="400" viewBox="0 0 1040 400" width="1040" xmlns="http://www.w3.org/2000/svg" xmlns:xlink="http://www.w3.org/1999/xlink"><mask id="a" height="219" maskUnits="userSpaceOnUse" width="328" x="354" y="124"><path d="m354 124.001h328v218h-328z" fill="#c2eaff"/></mask><mask id="b" height="51" maskUnits="userSpaceOnUse" width="51" x="748" y="182"><path d="m798.137 190.162-42.191-7.439-7.445 42.222 42.191 7.439z" fill="#fff"/></mask><mask id="c" height="50" maskUnits="userSpaceOnUse" width="51" x="782" y="231"><path d="m832.11 238.72-42.191-7.439-7.444 42.222 42.19 7.439z" fill="#fff"/></mask><mask id="d" height="50" maskUnits="userSpaceOnUse" width="50" x="741" y="224"><path d="m790.857 231.446-42.19-7.439-7.445 42.222 42.19 7.439z" fill="#fff"/></mask><mask id="e" height="51" maskUnits="userSpaceOnUse" width="51" x="789" y="189"><path d="m839.389 197.436-42.19-7.439-7.445 42.222 42.19 7.439z" fill="#fff"/></mask><path d="m0 0h1040v400h-1040z" fill="#66cbff"/><path d="m243.158 101.541 186.129-32.8196c4.895-.8632 9.563 2.4053 10.426 7.3004l41.988 238.1262-194.992 34.382z" stroke="#b8fcff" stroke-width="2"/><path d="m247.326 125.176h198v14h-198z" stroke="#b8fcff" stroke-width="2" transform="matrix(.98480775 -.17364818 .17364818 .98480775 -17.979147 44.849414)"/><path d="m161.119 179.417 6.589 7.502 49.395 122.256c.682 1.689-.134 3.611-1.823 4.294-1.689.682-3.612-.134-4.294-1.823l-49.394-122.255z" stroke="#b8fcff" stroke-width="2"/><path clip-rule="evenodd" d="m160.257 182.356-.137-2.892c-.045-.945 1.126-1.418 1.75-.707l1.99 2.265c-.834.832-1.984 1.347-3.255 1.347-.117 0-.233-.004-.348-.013z" fill="#b8fcff" fill-rule="evenodd"/><path d="m282.737 233.95-23.779-3.554-9.123-51.744 17.366-8.909 25.724 2.211 14.034 21.777-3.393 24.717z" fill="#66cbff" stroke="#b8fcff" stroke-width="2"/><circle cx="269.5" cy="198.5" r="3.5" stroke="#b8fcff" stroke-width="2"/><circle cx="272.5" cy="213.5" r="3.5" stroke="#b8fcff" stroke-width="2"/><circle cx="290.5" cy="206.5" r="3.5" stroke="#b8fcff" stroke-width="2"/><path d="m290 203-3.823-21.024c-.098-.541-.613-.901-1.154-.807l-24.044 4.162c-.542.093-.906.607-.816 1.149l2.337 14.02" stroke="#b8fcff" stroke-width="2"/><path d="m254.5 201.5 11.5-1.5" stroke="#b8fcff" stroke-width="2"/><path d="m257 216.5 12-2" stroke="#b8fcff" stroke-width="2"/><path d="m244.338 229.004-4.339-5.553-6.787 5.303 4.339 5.553z" fill="#fff"/><path d="m253.342 228.911-11.087-14.191c-3.408 2.662-4.012 7.583-1.35 10.99l1.447 1.851c2.662 3.408 7.583 4.012 10.99 1.35z" fill="#ffe3ac"/><path clip-rule="evenodd" d="m274.091 237.818c-20.108 0-36.409-16.301-36.409-36.409s16.301-36.409 36.409-36.409 36.409 16.301 36.409 36.409-16.301 36.409-36.409 36.409zm0-7.047c-16.216 0-29.362-13.146-29.362-29.362s13.146-29.362 29.362-29.362 29.362 13.146 29.362 29.362-13.146 29.362-29.362 29.362z" fill="#0a2d4d" fill-rule="evenodd"/><circle fill="#fff" fill-opacity=".4" r="29.3619" transform="matrix(-1 0 0 1 274.091 201.409)"/><path clip-rule="evenodd" d="m239.193 232.518c.68.87.526 2.127-.344 2.807l-16.626 12.989c-2.215 1.731-5.413 1.338-7.144-.877-1.73-2.215-1.338-5.413.877-7.144l16.626-12.989c.87-.68 2.127-.526 2.807.345zm-20.106 14.695c-1.621 0-2.936-1.314-2.936-2.936 0-1.621 1.315-2.936 2.936-2.936 1.622 0 2.937 1.315 2.937 2.936 0 1.622-1.315 2.936-2.937 2.936z" fill="#ffaa05" fill-rule="evenodd"/><path d="m258.481 270.867-1.799 13.712 72.659 15.271 1.798-13.712z" fill="#ffe3ac"/><path d="m299.806 356.144-55.999-11.337 12.875-60.228 72.659 15.271-8.428 42.16z" fill="#ffe3ac"/><path d="m309.849 341.708 11.064.302-21.107 14.134z" fill="#ffaa05"/><path d="m264.858 303.05c1.851-.213 5.342-1.392 8.63-3.244 4.016-2.263 4.443-4.169 2.65-4.357-2.051-.214-11.835 4.739-8.589 7.516 3.246 2.778 10.893.772 11.406-.637.513-1.41-6.963.126-4.828 3.031 1.708 2.325 10.479 2.396 14.652 2.141m-32.024 20.736c4.187-.782 12.859-2.875 14.056-4.993 1.495-2.649-14.099 6.574-13.759 11.487.34 4.912 18.841-6.445 19.354-7.855.513-1.409-10.168 1.62-8.161 3.415 2.008 1.795 12.645.346 12.688-1.235.043-1.58-6.217 2.461-4.038 3.786 1.742 1.06 10.522.815 14.694.56" stroke="#ffaa05" stroke-linecap="round" stroke-linejoin="round" stroke-width="2"/><path d="m280.339 316.069 38.23 7.529" stroke="#ffaa05" stroke-linecap="round" stroke-width="2"/><path d="m349 135.001c0-8.837 7.163-16 16-16h316c8.837 0 16 7.163 16 16v206c0 8.837-7.163 16-16 16h-316c-8.837 0-16-7.163-16-16z" fill="#034ea6"/><path d="m344 128.001c0-7.732 6.268-14 14-14h320c7.732 0 14 6.268 14 14v210c0 7.732-6.268 14-14 14h-320c-7.732 0-14-6.268-14-14z" fill="#0572ec"/><path d="m354 125.001c0-.552.448-1 1-1h318c.552 0 1 .448 1 1v216c0 .552-.448 1-1 1h-318c-.552 0-1-.448-1-1z" fill="#c2eaff"/><rect fill="#c2eaff" height="14" rx="2" width="4" x="681" y="226.001"/><g mask="url(#a)"><path clip-rule="evenodd" d="m497.592 123.416v33.707l14.086 21.259 10.311-2.238 7.799-10.629 2.389-12.728v-30.35z" fill="#f6d4bc" fill-rule="evenodd"/><path clip-rule="evenodd" d="m497.592 123.416v12.243c5.491 5.3 18.555 15.296 34.585 9.808v-23.03z" fill="#cbaa9a" fill-rule="evenodd"/><path clip-rule="evenodd" d="m465.35 320.584s65.593 1.955 85.574-.869c16.29 4.561 7.385 23.891 7.385 23.891h-114.027l8.47-17.375z" fill="#0a2d4d" fill-rule="evenodd"/><path clip-rule="evenodd" d="m550.924 319.715c-19.981 2.823-85.574.869-85.574.869l-12.598 5.647-2.017 4.138c16.976.03 82.604-.025 109.289-2.571-1.12-3.482-3.742-6.583-9.1-8.083z" fill="#02346e" fill-rule="evenodd"/><path clip-rule="evenodd" d="m495.236 149.001s16.97 15.204 19.996 15.204c3.025 0 20.895-15.204 20.895-15.204l9.428 94.914v79.059h-40.763l-37.792 1.52 7.168-46.479z" fill="#fff" fill-rule="evenodd"/><path clip-rule="evenodd" d="m511.863 162.55c1.369.888 2.447 1.437 3.022 1.437.585 0 1.724-.568 3.182-1.485 1.32.16 2.346.498 2.644 1.131.055.117.101.263.136.436 1.933-1.08 4.107-2.377 4.888-3.153 1.521-1.511 4.344 4.136 4.344 4.136s-4.669 4.519-10.308 6.106c-.499 1.256-1.161 2.406-1.998 3.211l7.962 130.132-11.231 9.99-11.554-9.339 8.917-130.939c-1.008-.944-1.722-2.287-2.228-3.673-5.534-1.742-10.4-4.946-10.619-6.248-.294-1.743 2.801-5.291 2.801-5.291s3.686 2.721 6.761 4.763c.179-.465.583-.977 1.487-1.058.098-.008.205-.018.32-.029.402-.036.906-.083 1.474-.127z" fill="#66cbff" fill-rule="evenodd"/><path clip-rule="evenodd" d="m512.708 163.074c-5.524-3.276-17.819-14.291-17.819-14.291l-4.834 29.6h3.547z" fill="#dee0e3" fill-rule="evenodd"/><path clip-rule="evenodd" d="m517.209 163.021 22.495 25.273-3.925-39.511s-12.804 10.895-18.57 14.238z" fill="#dee0e3" fill-rule="evenodd"/><path d="m447 342.001c10.4 2 12.333-7.5 12-12.5h-.5c-8.167 3.333-21.9 10.5-11.5 12.5z" fill="#f6d4bc"/><g clip-rule="evenodd" fill-rule="evenodd"><path d="m497.592 139.661s-35.283 14.986-53.311 24.326c-5.646 2.823-10.859 7.602-13.031 18.678-2.172 11.078-16.507 81.448-17.809 90.571-1.304 9.122.433 17.809 3.257 25.845 2.824 8.037 13.032 46.046 14.987 46.697 1.954.652 12.596 0 12.596 0s15.856-14.552 16.507-16.507c0 0 1.522 1.116 3.041 1.102 1.52-.013 29.105-30.422 30.842-39.979s2.921-150.733 2.921-150.733z" fill="#16436c"/><path d="m454.287 181.34c-.311.47.793 1.603 2.099 3.693.636 1.053.981 1.905 1.283 2.711.14.41.279.805.438 1.214.14.419.287.859.482 1.341.717 1.96.923 2.613 1.191 3.792.394 1.49.358 3.364.782 5.478.329 1.835.49 3.31 1.031 3.297.7-.012.928-1.646.751-2.644-.408-1.894-.047-2.876-.509-4.879-.856-3.385-1.343-5.596-1.655-6.94-.193-.735-.82-1.743-1.389-2.74-.54-.934-.616-1.451-1.449-2.442-1.707-1.914-2.78-2.31-3.055-1.881z" fill="#02346e"/><path d="m447.952 296.49c.118-.081.025-.473-.077-1.227-.101-.753-.205-1.863-.208-3.288-.021-2.853.396-6.934 1.368-11.786 1.889-9.762 3.104-14.361 4.627-22.581 1.515-8.226 2-10.866 2.869-15.587 1.08-5.973 2.775-13.118 4.064-21.51.557-3.617 1.022-6.864 1.268-9.22.098-1.193.173-2.131.139-2.826-.056-.71-.15-1.066-.281-1.048-.172.026-.344.428-.498 1.01-.171.593-.415 1.475-.612 2.451-.455 1.971-.908 4.426-1.183 6.324-1.049 7.27-2.135 10.707-3.471 18.341-2.232 13.059-4.176 21.442-5.316 26.385-.634 2.736-1.278 7.047-2.065 11.251-.719 3.973-1.304 5.614-1.955 10.352-.583 4.696-.45 8.052-.027 10.163.413 2.119 1.133 2.951 1.358 2.796z" fill="#02346e"/><path d="m431.493 282.134c-.569.122-.485 1.57.544 3.278 1.055 1.661 1.535 2.556 2.86 3.612.691.488 1.153.792 1.572.996.412.213.724.418 1.162.607.554.236 1.115.601 1.788.867.333.139.677.307 1.053.408.377.097.774.178 1.19.23 1.438.136 2.556.138 2.611-.371.072-.697-.971-1.188-1.672-1.175-.665-.039-1.13-.222-1.593-.404-.457-.204-.888-.473-1.555-.653-2.275-.711-3.323-1.989-3.813-2.703-.148-.195-.387-.388-.638-.62-.264-.22-.558-.464-.786-.759-.231-.265-.343-.494-.458-.736-.123-.236-.259-.477-.502-.808-.977-1.316-1.236-1.906-1.763-1.769z" fill="#02346e"/><path d="m433.443 293.852c-.452.366.07 1.39 1.386 2.245 1.324.795 1.976 1.318 3.321 1.531 1.35.115 1.777.004 2.53-.044.471-.09 1.007-.061 1.57-.179.281-.051.583-.09.875-.19.288-.108.581-.238.869-.404.972-.601 1.66-1.136 1.406-1.583-.354-.604-1.242-.516-1.65-.172-.413.289-.786.364-1.152.437-.374.047-.754.041-1.237.217-1.704.532-2.873.012-3.414-.323-.312-.179-.9-.16-1.414-.381-.485-.205-.585-.476-1.15-.717-1.122-.514-1.535-.792-1.94-.437z" fill="#02346e"/><path d="m448.433 298.637c-.533.229.143 2.46 1.456 5.641 1.309 3.185 1.689 4.802 2.866 7.441 1.178 2.64 1.595 3.472 2.229 5.003.848 1.919 1.511 4.381 2.735 7.03.516 1.139.976 2.159 1.309 2.894.086.181.171.345.25.485.059.127.122.238.185.331.128.185.26.298.393.292.175-.006.301-.146.379-.406.039-.129.066-.288.081-.469.007-.166-.002-.335-.019-.52-.056-.747-.31-1.59-.591-2.203-1.099-2.326-1.157-3.63-2.255-6.091-1.957-4.164-2.851-7.013-3.365-8.704-.285-.934-1.05-2.249-1.652-3.602-.567-1.274-.629-1.908-1.373-3.365-1.478-2.882-2.144-3.965-2.628-3.757z" fill="#02346e"/><path d="m456.238 307.528c-.258.517.814 1.327 2.67 1.584.925.109 1.622.172 2.292.17.334-.016.664-.025 1.005-.073.338-.072.691-.164 1.078-.29.742-.343 1.231-.562 1.587-.838.358-.266.688-.422 1.023-.731.429-.386.976-.722 1.45-1.221.529-.455.973-1.051 1.328-1.759.565-1.236.892-2.221.428-2.437-.638-.288-1.399.45-1.588 1.064-.223.567-.543.895-.845 1.229-.319.324-.706.567-1.076 1.068-.359.373-.699.727-1.056.97-.375.214-.698.444-1.036.54-.335.101-.626.197-.893.234-.269.017-.501.031-.699.043-.428.001-1.054.299-1.73.328-.635.02-.888-.185-1.632-.183-1.494-.054-2.085-.192-2.306.302z" fill="#02346e"/><path d="m454.163 304.051c.005.577.994.825 2.34.452 1.32-.386 2.077-.485 3.033-1.277.918-.832 1.072-1.224 1.498-1.775.401-.754 1.243-1.603 1.263-2.864.046-1.052-.057-1.838-.564-1.863-.701-.023-1.098.657-1.026 1.119.004.434-.114.743-.26 1.03-.194.266-.348.545-.511.946-.51 1.461-1.608 1.871-2.125 2.022-.311.079-.632.489-1.08.71-.428.19-.67.079-1.162.332-1.002.471-1.427.635-1.406 1.168z" fill="#02346e"/><path d="m497.349 164.845c.158-15.034.243-25.184.243-25.184s-9.035 3.838-20.295 8.839l8.951 21.018c3.86-1.659 7.923-3.358 11.101-4.673z" fill="#02346e"/><path d="m486.248 169.518c-6.408 2.756-12.234 5.4-12.428 5.979-.387 1.164 15.809 73.57 22.01 88.535.677-27.155 1.195-68.92 1.49-96.449.01-.929.02-1.842.029-2.738-3.178 1.315-7.242 3.013-11.101 4.673z" fill="#02346e"/><path d="m532.177 140.53s27.869 11.729 36.34 16.073 12.38 11.728 13.249 16.289 2.389 14.118 2.389 14.118l1.738 3.041s17.593-6.082 24.543-15.421c1.086-1.521 7.601 41.918 11.511 61.9 3.909 19.982 0 32.362-1.738 36.271-1.737 3.91-5.647 6.733-9.34 8.037-3.691 1.303-9.122 1.737-13.031-1.521s-22.806-20.85-26.498-25.846c0 4.996-1.737 51.258 1.955 65.159 1.737 4.561 7.167 15.203 7.167 18.678s-2.56 7.167-2.56 7.167h-30.67s-9.774-11.511-11.946-37.357-3.109-166.588-3.109-166.588z" fill="#16436c"/><path d="m610.707 174.995c.764 1.563-5.948 6.41-14.991 10.826s-16.992 6.729-17.756 5.166c-.763-1.562 5.949-6.409 14.992-10.825 9.043-4.417 16.992-6.729 17.755-5.167z" fill="#02346e"/><path d="m582.82 129.525s-1.955-3.747 0-7.33c1.954-3.584 4.397 1.829 4.887 3.602.488 1.773-4.887 3.728-4.887 3.728z" fill="#cbaa9a"/><path d="m600.575 179.372s-.978-13.955.651-30.842c1.63-16.887 8.309-42.216 10.426-45.596.978-1.589-6.027-1.101-9.61 8.51-3.584 9.611-3.91 13.296-3.91 13.296s-3.746-1.204-10.425 1.058-12.218 6.823-7.493 9.266c0 0-4.562 3.584-.163 7.982 0 0-1.872.489-1.913 3.747-.042 3.258-.531 14.335 4.682 13.52 0 0-1.037 20.525 12.106 19.71 3.695.978 5.649-.651 5.649-.651z" fill="#fcd7bb"/><path d="m581.237 134.723c.175.346 1.444-.102 3.285-.858 1.85-.743 2.799-.901 4.358-1.461 1.564-.545 2.072-.701 2.991-.904 1.152-.258 2.636-.314 4.08-.082 1.305.195 1.617 1.266 1.976 1.161.207-.052.307-.444.118-.911-.157-.489-.672-.923-1.094-1.091-.817-.304-1.406-.399-2.005-.482-.599-.08-1.214-.113-2.018.026-2.711.566-4.381 1.035-5.419 1.238-.566.125-1.359.554-2.162.895-.754.323-1.135.34-1.986.794-1.678.908-2.279 1.364-2.124 1.675z" fill="#cbaa9a"/><path d="m581.236 142.543c.225.314 1.17-.14 2.564-.841 1.403-.692 2.163-.797 3.362-1.286 1.212-.467 1.609-.607 2.333-.78.916-.257 2.059-.227 3.348-.392.283-.033.55-.064.792-.092.243-.009.461-.022.647-.045.372-.046.613-.132.639-.308.076-.449-.936-.791-1.581-.708-.612.081-1.062.038-1.523.052-.462-.009-.938-.018-1.564.133-2.121.543-3.473.89-4.305 1.068-.457.103-1.067.505-1.693.816-.585.304-.903.317-1.547.752-1.26.882-1.672 1.347-1.472 1.631z" fill="#cbaa9a"/><path d="m581.245 151.879c-.002.388.483.555 1.143.468.657-.084 1.005.02 1.536-.169.524-.196.676-.3.974-.407.364-.169.894-.143 1.354-.501.392-.308.7-.536.55-.855-.201-.422-.635-.454-.818-.281-.362.322-.672.145-1.093.38-.714.448-1.292.398-1.615.362-.179-.022-.408.167-.661.235-.238.064-.363-.043-.632.074-.537.227-.74.34-.738.694z" fill="#cbaa9a"/><path d="m583.074 159.498c.387.007.571-.547.636-1.381.069-.835.279-1.218.289-1.917.01-.7-.011-.928.027-1.326.023-.507.3-1.079.295-1.779-.006-.608.071-1.064-.267-1.185-.435-.161-.812.326-.798.68.009.664-.316.918-.34 1.599.022 1.159-.217 1.869-.369 2.297-.082.236.022.619.019.986-.003.345-.137.489-.079.897.118.806.235 1.121.587 1.129z" fill="#cbaa9a"/><path d="m607.601 174.696c-1.437-2.978-3.47-7.158-3.627-7.315-.244-.245-.814-1.141-2.036-.57-6.76 2.932-16.859 9.773-17.674 10.588-.814.815 0 2.117 0 2.117l2.256 4.08 2.808 5.077c2.002-.806 4.162-1.764 6.388-2.852 5.92-2.89 10.823-5.96 13.303-8.178-.022-.044-.63-1.313-1.418-2.947z" fill="#dee0e3"/><path d="m578.129 191.911c-.12-.088-.408.145-.644.687-.238.539-.422 1.373-.483 2.426-.059 1.053.009 2.322.209 3.746.203 1.429.523 2.978.87 4.673 1.422 6.766 1.874 10.035 3.218 15.682 1.375 5.64 1.816 7.45 2.605 10.686 1.017 4.088 1.866 9.118 3.49 14.786.704 2.442 1.333 4.627 1.888 6.183.529 1.555 1.041 2.481 1.274 2.386.34-.132.228-1.187.02-2.582-.234-1.381-.606-3.077-.998-4.347-1.458-4.884-1.612-7.399-2.951-12.604-2.35-8.886-3.375-14.771-3.977-18.238-.33-1.92-1.182-4.824-1.842-7.714-.622-2.72-.698-3.949-1.477-7.114-.792-3.106-1.042-5.252-1.076-6.623-.037-1.373.1-1.897-.126-2.033z" fill="#02346e"/><path d="m573.21 182.298c-.278-.145-.979 1.066-1.514 3.271-.556 2.203-1.017 5.392-1.333 9.208-.302 3.819-.492 6.635-.651 9.3-.148 2.666-.267 5.18-.247 8.389-.015 3.21.068 5.327.095 7.103.037 1.776.066 3.21.104 5.05.128 4.65-.029 10.277.416 16.762.427 5.589.718 10 1.25 9.976.699-.034.818-4.776.572-7.704-.462-5.609-.103-8.357-.366-14.28-.513-10.124-.104-16.7.105-20.565.163-2.137.013-5.467.168-8.723.048-1.536.163-2.631.277-3.79.104-1.162.21-2.386.332-4.171.229-3.536.519-5.971.718-7.518.195-1.556.308-2.195.074-2.308z" fill="#02346e"/><path d="m532.326 159.393c2.725 2.183 7.119 5.743 11.303 9.299l10.379-18.771c-10.434-4.594-21.831-9.391-21.831-9.391s.048 7.301.149 18.863z" fill="#02346e"/><path d="m543.629 168.692c-4.184-3.557-8.578-7.117-11.303-9.299.026 2.909.054 6.083.086 9.486.223 23.748.61 58.332 1.178 87.464l21.048-76.936c-.571-1.549-5.607-6.123-11.009-10.715z" fill="#02346e"/><path d="m542.956 61.8208c-5.633-10.678-14.756-14.385-22.043-15.523v-.025s-2.254-.44-5.672-.4254c-3.417-.0146-5.671.4254-5.671.4254l-.001.025c-7.288 1.138-16.409 4.845-22.043 15.523-10.559 20.016-.178 52.6652 1.075 55.1942 1.252 2.531 7.249 13.056 19.956 19.419 2.102 1.023 4.503 1.276 6.684 1.195 2.181.081 4.583-.172 6.686-1.195 12.707-6.363 18.702-16.888 19.956-19.419 1.253-2.529 11.633-35.1782 1.073-55.1942z" fill="#fcd7bb"/></g></g><g clip-rule="evenodd" fill-rule="evenodd"><path d="m497.592 123.416v24.585l1.908 3 15.5 5h6.5l6-2.5 4.677-2.5v-28.564z" fill="#fcd7bb"/><path d="m497.592 123.416v12.243c5.491 5.3 18.555 15.296 34.585 9.808v-23.03z" fill="#cbaa9a"/><path d="m582.821 129.525s-1.955-3.747 0-7.33c1.954-3.584 4.397 1.829 4.887 3.602.488 1.773-4.887 3.728-4.887 3.728z" fill="#cbaa9a"/><path d="m596.5 166.001s2.5 2 3.801 0c.061-4.984.302-11.013.925-17.471 1.63-16.887 8.309-42.216 10.426-45.596.978-1.589-6.027-1.101-9.61 8.51-3.584 9.611-3.91 13.296-3.91 13.296s-3.746-1.204-10.425 1.058-12.218 6.823-7.493 9.266c0 0-4.562 3.584-.163 7.982 0 0-1.872.489-1.913 3.747-.042 3.258-.531 14.335 4.682 13.52 0 0-.376 7.444 2.196 13.188 1.698 3.794 3.756-3.676 8.984-4 3.695.978 2.5-3.5 2.5-3.5z" fill="#fcd7bb"/><path d="m581.238 134.723c.175.346 1.444-.102 3.285-.858 1.85-.743 2.799-.901 4.358-1.461 1.564-.545 2.072-.701 2.991-.904 1.152-.258 2.636-.314 4.08-.082 1.305.195 1.617 1.266 1.976 1.161.207-.052.307-.444.118-.911-.157-.489-.673-.923-1.095-1.091-.817-.304-1.405-.399-2.004-.482-.599-.08-1.214-.113-2.018.026-2.711.566-4.381 1.035-5.419 1.238-.566.125-1.359.554-2.162.895-.754.323-1.135.34-1.986.794-1.678.908-2.279 1.364-2.124 1.675z" fill="#cbaa9a"/><path d="m581.236 142.543c.225.314 1.17-.14 2.564-.841 1.403-.692 2.163-.797 3.362-1.286 1.212-.467 1.609-.607 2.333-.78.916-.257 2.059-.227 3.348-.392.283-.033.55-.064.792-.092.243-.009.461-.022.647-.045.372-.046.613-.132.639-.308.076-.449-.936-.791-1.581-.708-.612.081-1.062.038-1.523.052-.462-.009-.938-.018-1.564.133-2.121.543-3.473.89-4.305 1.068-.457.103-1.067.505-1.693.816-.585.304-.903.317-1.547.752-1.26.882-1.672 1.347-1.472 1.631z" fill="#cbaa9a"/><path d="m581.245 151.879c-.002.388.483.555 1.143.468.657-.084 1.005.02 1.536-.169.524-.196.676-.3.974-.407.364-.169.894-.143 1.354-.501.392-.308.7-.536.55-.855-.201-.422-.635-.454-.818-.281-.362.322-.672.145-1.093.38-.714.448-1.292.398-1.615.362-.179-.022-.408.167-.661.235-.238.064-.363-.043-.632.074-.537.227-.74.34-.738.694z" fill="#cbaa9a"/><path d="m583.074 159.498c.387.007.571-.547.636-1.381.069-.835.279-1.218.289-1.917.01-.7-.011-.928.027-1.326.023-.507.3-1.079.295-1.779-.006-.608.071-1.064-.267-1.185-.435-.161-.812.326-.798.68.009.664-.316.918-.34 1.599.022 1.159-.217 1.869-.369 2.297-.082.236.022.619.019.986-.003.345-.137.489-.079.897.118.806.235 1.121.587 1.129z" fill="#cbaa9a"/><path d="m477.857 87.9057c5.638-5.629 12.617 0 12.617 0s9.934 14.4763 0 18.7653c-9.933 4.289-18.255-13.1363-12.617-18.7653zm74.955 0c-5.638-5.629-12.618 0-12.618 0s-9.933 14.4763 0 18.7653c9.934 4.289 18.256-13.1363 12.618-18.7653z" fill="#f0c7a8"/><path d="m542.956 61.8208c-5.633-10.678-14.756-14.385-22.043-15.523v-.025s-2.254-.44-5.672-.4254c-3.417-.0146-5.671.4254-5.671.4254l-.001.025c-7.288 1.138-16.409 4.845-22.043 15.523-10.559 20.016-.178 52.6652 1.075 55.1942 1.252 2.531 7.249 13.056 19.956 19.419 2.102 1.023 4.503 1.276 6.684 1.195 2.181.081 4.583-.172 6.686-1.195 12.707-6.363 18.702-16.888 19.956-19.419 1.253-2.529 11.633-35.1782 1.073-55.1942z" fill="#fcd7bb"/></g><path d="m513.146 104.304v6.176h4.435" stroke="#d9b29e" stroke-linecap="round" stroke-linejoin="round" stroke-width="1.4"/><path d="m509.046 116.74s5.101 4.759 11.861 0" stroke="#d9b29e" stroke-linecap="round" stroke-linejoin="round" stroke-width="1.4"/><path clip-rule="evenodd" d="m501.287 92.876c0 1.38-.729 2.5-1.626 2.5s-1.626-1.12-1.626-2.5.729-2.5 1.626-2.5 1.626 1.12 1.626 2.5z" fill="#051627" fill-rule="evenodd"/><path clip-rule="evenodd" d="m531.439 92.876c0 1.38-.729 2.5-1.626 2.5-.899 0-1.626-1.12-1.626-2.5s.727-2.5 1.626-2.5c.897 0 1.626 1.12 1.626 2.5z" fill="#051627" fill-rule="evenodd"/><path d="m493.602 82.7275 7.981-1.624" stroke="#c9b090" stroke-linecap="round" stroke-linejoin="round" stroke-width="3.4"/><path d="m536.168 81.916-7.982-.812" stroke="#c9b090" stroke-linecap="round" stroke-linejoin="round" stroke-width="3.4"/><path d="m536.832 93.0215c1.758-.19 3.19.343 4.298 1.602" stroke="#d9b29e" stroke-linecap="round" stroke-linejoin="round" stroke-width="1.4"/><path d="m493.072 93.3315c-1.757-.19-3.189.343-4.298 1.602" stroke="#d9b29e" stroke-linecap="round" stroke-linejoin="round" stroke-width="1.4"/><path d="m536.832 91.0044c1.758.191 3.19-.343 4.298-1.601" stroke="#d9b29e" stroke-linecap="round" stroke-linejoin="round" stroke-width="1.4"/><path d="m493.072 91.3144c-1.757.191-3.189-.343-4.298-1.602" stroke="#d9b29e" stroke-linecap="round" stroke-linejoin="round" stroke-width="1.4"/><path clip-rule="evenodd" d="m483.783 93.0205s-.645-15.254 5.713-18.322c0 0-1.013-12.983 4.883-14.916 0 0 4.145 0 8.477.921 4.33.92 8.384 1.473 11.332 0 1.013-.553 2.487.92 3.962.736 1.473-.184 1.197-.275 2.764-.828 1.566-.552 2.211.553 5.251.184 3.041-.368 4.975-1.013 4.975-1.013s4.884-.552 5.622 0c.735.553 5.25 5.065 3.868 15.1 0 0 5.758 1.013 5.713 18.138 0 0 1.75-.552 2.21-2.578.461-2.025 1.567-16.941-1.29-28.082-2.856-11.141-12.853-18.771-31.512-19.336-22.57-.681-29.849 13.075-29.849 13.075s-3.592 6.109-4.421 15.53c-.83 9.422 0 18.906.552 19.826.552.921 1.75 1.565 1.75 1.565z" fill="#c9b090" fill-rule="evenodd"/><path clip-rule="evenodd" d="m501.575 55.5371c.178.352 1.109.049 2.519-.213 1.418-.235 2.094-.024 3.206.137.287.029.508.106.704.167.193.062.367.097.511.159.283.14.516.25.804.41.69.493 1.316 1.284 2.01 2.272.634.836.984 1.631 1.34 1.497.441-.151.232-1.137-.095-1.661-.366-.471-.581-.847-.784-1.251-.258-.366-.51-.774-.994-1.189-1.761-1.316-3.162-1.685-3.975-1.933-.228-.05-.529-.058-.855-.05-.322.038-.672.08-1.02.121-.642.094-.948.01-1.671.264-1.404.546-1.852.966-1.7 1.27z" fill="#a48761" fill-rule="evenodd"/><path clip-rule="evenodd" d="m503.297 50.6499c.151.362 1.321.023 3.082-.036.876.01 1.513.135 2.068.34.565.187 1.055.436 1.668.775.291.197.549.342.755.494.191.174.352.321.499.454.315.25.51.516.754.861.698.828 1.024 2.131 1.633 3.533.457 1.252.725 2.295 1.086 2.235.463-.067.412-1.28.171-1.987-.226-.673-.425-1.168-.545-1.699-.107-.535-.34-1.052-.714-1.721-1.391-2.234-2.853-3.321-3.765-3.843-.125-.077-.274-.153-.44-.223-.175-.049-.365-.094-.565-.138-.397-.109-.837-.145-1.27-.189-.807-.07-1.173-.202-2.114-.047-1.836.399-2.433.89-2.303 1.191z" fill="#a48761" fill-rule="evenodd"/><path clip-rule="evenodd" d="m515.37 50.0288c-.166.351.459.829 1.234 1.671.732.888.8 1.455 1.106 2.305.063.223.115.408.16.569.022.167.042.309.06.438.048.258.059.472.03.749-.005.175-.019.358-.05.549-.056.188-.113.384-.173.589-.09.414-.3.837-.387 1.34-.222.852-.498 1.514-.178 1.691.404.234.948-.402 1.093-.892.209-.95.653-1.298.784-2.352.148-1.782-.022-2.97-.17-3.684-.032-.202-.143-.433-.307-.662-.145-.241-.332-.479-.517-.712-.337-.439-.405-.715-.931-1.112-1.064-.74-1.611-.789-1.754-.487z" fill="#a48761" fill-rule="evenodd"/><path clip-rule="evenodd" d="m524.009 52.29c-.37.111-.38.692-.437 1.548-.092.86-.382 1.196-.596 1.849-.259.648-.369.862-.612 1.192-.299.444-.882.737-1.403 1.278-.459.473-.902.779-.735 1.104.206.42.848.287 1.139.019.516-.548.977-.545 1.505-1.163.798-1.112 1.301-1.842 1.59-2.322.17-.26.171-.75.215-1.192.043-.417.188-.597.111-1.096-.178-.976-.451-1.313-.777-1.217z" fill="#a48761" fill-rule="evenodd"/><path d="m752.233 87.9874-13.588-12.4642-.006-.0051c-.267-.2425-.583-.4249-.926-.5349l-.008-.0023-17.588-5.5359v-.0001c-.543-.1708-1.128-.1513-1.658.0554-.53.2065-.974.5875-1.258 1.0801v.0005c-.001.0002-.001.0004-.001.0005l-9.999 17.3195c-2.719 4.7085-3.455 10.3041-2.048 15.5561 1.407 5.251 4.843 9.729 9.551 12.447 4.709 2.719 10.305 3.456 15.556 2.048 5.252-1.407 9.729-4.843 12.448-9.551l9.999-17.3196c0-.0002.001-.0005.001-.0008 0-.0001 0-.0002 0-.0002.284-.4924.393-1.0672.306-1.6293-.086-.5626-.361-1.0789-.781-1.4637z" fill="#ffaa05" stroke="#fff" stroke-width="3"/><path d="m734.383 97.8207-2.599-1.5 2.5-4.3301c.663-1.1484.843-2.5132.5-3.7941s-1.181-2.373-2.33-3.036c-1.148-.6631-2.513-.8427-3.794-.4995s-2.373 1.1812-3.036 2.3296l-2.5 4.3301-2.598-1.5c-.23-.1326-.503-.1685-.759-.0999-.256.0687-.474.2363-.607.466l-5 8.6602c-.133.2297-.168.5027-.1.7588.069.2562.236.4742.466.6072l13.857 8c.229.133.502.169.758.1.257-.069.475-.236.608-.466l5-8.6602c.132-.2297.168-.5027.099-.7589-.068-.2561-.236-.4746-.465-.6072zm-4.331-2.5-5.196-3 2.5-4.3301c.398-.689 1.053-1.1918 1.822-1.3978.768-.2059 1.587-.0981 2.276.2997.689.3979 1.192 1.0531 1.398 1.8216.206.7686.098 1.5875-.3 2.2765z" fill="#ffe3ac"/><rect fill="#0572ec" height="31" rx="5.5" stroke="#fff" stroke-width="3" transform="matrix(.8660254 -.5 .5 .8660254 -56.688434 107.337883)" width="143" x="171.951" y="159.451"/><path d="m185.939 163.315.863 3.233 1.017-.587-1.083-3.106zm4.984 1.865c.352-.203.468-.637.265-.989-.204-.351-.637-.468-.989-.264-.352.203-.468.636-.265.988s.637.468.989.265zm3.283 6.042-.862-3.233-1.017.588 1.082 3.106zm3.289-7.696-.514-.891-3.606 2.082.514.891zm4.827-2.787-.514-.891-3.607 2.082.514.891zm2.88 2.031.957-.552-1.924-3.331c-.571-.99-.357-1.978.594-2.527.896-.518 1.666-.237 2.19.67l2.031 3.518.957-.552-2.133-3.694c-.736-1.275-1.984-1.684-3.237-.96-.869.501-1.28 1.237-1.23 2.059l-.022.012-1.806-3.128-.957.553zm7.493-5.279c-.688.397-1.35.303-1.664-.241-.311-.539-.068-1.133.673-1.627l1.474-.976.27.467c.476.825.148 1.857-.753 2.377zm.255.938c.77-.444 1.248-1.292 1.211-2.143l.022-.013.568.984.907-.524-2.282-3.952c-.657-1.138-1.923-1.375-3.264-.6-1.352.78-1.761 2.028-1.256 3.055l.924-.533c-.203-.63.059-1.243.796-1.669.791-.457 1.494-.305 1.897.393l.276.478-1.584 1.039c-1.275.839-1.672 1.889-1.107 2.868.593 1.028 1.754 1.274 2.892.617zm5.311-10.821-.995.574 1.131 5.614-.022.013-4.292-3.789-1.006.581 5.406 4.501.979-.565zm3.303-.932c.901-.521 1.894-.185 2.468.759l-3.106 1.793c-.488-.986-.258-2.035.638-2.552zm3.433 2.481c.152.631-.169 1.307-.894 1.726-1.028.593-2.087.245-2.719-.849l-.031-.055 4.1-2.368-.209-.363c-1-1.731-2.598-2.304-4.143-1.412-1.578.911-1.894 2.699-.869 4.474 1.038 1.798 2.69 2.362 4.328 1.416 1.248-.721 1.79-2.016 1.377-3.112zm5.284-.866.956-.552-3.301-5.717-.956.552zm-3.41-7.01c.335-.194.444-.615.253-.945-.194-.336-.61-.447-.945-.254-.33.191-.447.61-.253.946.19.329.615.443.945.253zm10.866 2.837c1.462-.844 1.76-2.563.722-4.36-1.034-1.792-2.68-2.396-4.121-1.564-.808.466-1.241 1.251-1.221 2.112l-.022.013-1.831-3.172-.957.552 4.58 7.932.913-.526-.559-.968.022-.013c.749.447 1.638.476 2.474-.006zm-3.116-4.966c1.011-.584 2.111-.127 2.86 1.171.755 1.308.595 2.478-.417 3.062-.967.558-2.14.114-2.876-1.161-.733-1.27-.535-2.513.433-3.072zm5.875-3.407c.902-.52 1.895-.185 2.469.759l-3.106 1.793c-.489-.986-.259-2.035.637-2.552zm3.434 2.481c.151.631-.169 1.307-.895 1.726-1.028.594-2.087.245-2.718-.849l-.032-.055 4.101-2.368-.21-.362c-.999-1.732-2.598-2.304-4.143-1.413-1.577.911-1.894 2.699-.868 4.475 1.037 1.797 2.689 2.361 4.328 1.415 1.247-.72 1.79-2.016 1.377-3.111zm2.338-5.813c.902-.521 1.895-.185 2.469.759l-3.106 1.793c-.489-.986-.259-2.035.637-2.552zm3.434 2.481c.152.631-.169 1.307-.895 1.726-1.028.593-2.087.244-2.718-.849l-.032-.055 4.101-2.368-.209-.363c-1-1.732-2.599-2.304-4.143-1.412-1.578.911-1.895 2.699-.869 4.474 1.037 1.798 2.689 2.361 4.328 1.416 1.247-.721 1.79-2.016 1.377-3.112zm2.925.495.956-.552-1.942-3.364c-.559-.968-.339-1.945.563-2.465.879-.508 1.606-.253 2.139.67l2.044 3.541.956-.553-2.142-3.71c-.749-1.298-1.941-1.687-3.195-.963-.885.511-1.266 1.259-1.23 2.059l-.022.012-.526-.912-.902.52zm7.664-12.179c-.83.479-1.251 1.286-1.232 2.133l-.022.012-.558-.967-.907.524 4.402 7.624.956-.552-1.637-2.837.022-.012c.702.43 1.594.45 2.413-.023 1.44-.831 1.751-2.565.717-4.357-1.035-1.792-2.697-2.386-4.154-1.545zm2.742 5.182c-.978.565-2.123.104-2.86-1.171-.733-1.27-.562-2.497.416-3.062 1.017-.587 2.131-.131 2.877 1.161.749 1.297.584 2.485-.433 3.072zm8.002-11.253-.946.546 1.542 5.311-.022.012-3.983-3.901-.923.533 1.393 5.396-.022.013-3.829-3.99-.951.549 4.901 4.793.973-.562-1.269-5.168.022-.012 3.847 3.679.973-.562zm4.086 5.263.957-.552-1.942-3.364c-.559-.968-.339-1.945.563-2.466.879-.507 1.605-.252 2.139.671l2.044 3.54.956-.552-2.142-3.711c-.749-1.297-1.941-1.686-3.195-.962-.885.511-1.267 1.259-1.23 2.058l-.022.013-.527-.912-.901.52zm5.351-9.737c.902-.521 1.894-.185 2.469.759l-3.106 1.793c-.489-.986-.259-2.035.637-2.552zm3.434 2.481c.151.631-.169 1.307-.895 1.726-1.028.594-2.087.245-2.718-.849l-.032-.055 4.101-2.368-.21-.362c-.999-1.732-2.598-2.304-4.143-1.413-1.577.911-1.894 2.699-.869 4.475 1.038 1.797 2.69 2.361 4.328 1.415 1.248-.72 1.79-2.016 1.378-3.111zm5.148-.656c.824-.476 1.243-1.26 1.231-2.132l.016-.01.559.968.913-.527-4.58-7.933-.957.552 1.816 3.145-.022.013c-.703-.43-1.594-.451-2.413.022-1.441.832-1.752 2.565-.717 4.357 1.034 1.792 2.697 2.386 4.154 1.545zm-2.748-5.178c.984-.568 2.129-.108 2.865 1.167.74 1.281.562 2.497-.422 3.066-1.011.584-2.122.133-2.871-1.165-.746-1.292-.584-2.484.428-3.068zm3.062-2.948.94-.543c-.394-.821-.148-1.615.682-2.094.819-.473 1.635-.278 2.029.404.34.588.292 1.077-.12 1.836-.493.885-.559 1.583-.135 2.306l.292.506.962-.556-.206-.357c-.333-.577-.313-1 .147-1.815.459-.829.552-1.697.054-2.56-.654-1.132-2.095-1.444-3.48-.644-1.545.892-1.787 2.3-1.165 3.517zm5.619 4.642c.357-.206.468-.637.265-.989-.206-.357-.631-.471-.988-.264-.352.203-.472.631-.265.988.203.352.636.468.988.265z" fill="#fff"/><path clip-rule="evenodd" d="m756.62 131.004c6.547 11.339 21.045 15.224 32.384 8.677 11.339-6.546 15.224-21.045 8.677-32.384-6.546-11.3387-21.045-15.2236-32.384-8.6772-11.339 6.5462-15.224 21.0452-8.677 32.3842z" fill="#fff" fill-rule="evenodd"/><path clip-rule="evenodd" d="m767.452 102.353c9.278-5.3564 21.14-2.178 26.497 7.099 5.356 9.278 2.177 21.14-7.1 26.497-9.277 5.356-21.14 2.177-26.496-7.1s-2.178-21.14 7.099-26.496z" fill="#1a8cff" fill-rule="evenodd"/><path clip-rule="evenodd" d="m770.121 106.784c6.721-3.88 15.42-1.549 19.396 5.337 3.88 6.721 1.549 15.42-5.172 19.3-6.886 3.976-15.585 1.645-19.465-5.076-3.976-6.886-1.645-15.585 5.241-19.561z" fill="#f7f7f7" fill-rule="evenodd"/><path clip-rule="evenodd" d="m782.75 115.918c1.785 3.092.726 7.047-2.367 8.832-3.092 1.785-7.046.726-8.832-2.367-1.785-3.092-.725-7.046 2.367-8.832 3.092-1.785 7.047-.726 8.832 2.367z" fill="#000" fill-opacity=".05" fill-rule="evenodd"/><path d="m774.013 109.017c.525-.303 1.231-.066 1.575.531l4.83 8.365c.11.191.149.413.108.617l-.205 1.018c-.086.425.178.881.588 1.019l.985.332c.197.066.369.211.48.402l2.312 4.004c.344.597.197 1.326-.329 1.63l-4.068 2.349c-.526.304-1.231.066-1.576-.531l-4.83-8.365c-.11-.191-.149-.413-.108-.616l.205-1.019c.086-.425-.177-.881-.588-1.019l-.984-.331c-.198-.067-.37-.211-.48-.402l-2.312-4.005c-.345-.596-.198-1.326.328-1.63z" fill="#0a2d4d"/><path d="m858.579 170.83-114.378-20.168c-2.072-.366-4.049 1.018-4.414 3.09l-28.125 159.507c-.366 2.072 1.018 4.049 3.09 4.414l114.378 20.168c2.073.365 4.049-1.019 4.414-3.091l28.126-159.506c.365-2.073-1.019-4.049-3.091-4.414z" fill="#c2eaff"/><path clip-rule="evenodd" d="m744.201 150.662 1.873.33-29.449 167.011-1.873-.33c-2.072-.365-3.456-2.342-3.09-4.414l28.125-159.507c.365-2.072 2.342-3.456 4.414-3.09z" fill="#16436c" fill-rule="evenodd"/><g mask="url(#b)"><path d="m798.137 190.162-42.191-7.439-7.445 42.222 42.191 7.439z" fill="#fff"/><path clip-rule="evenodd" d="m819.226 197.751-37.699 26.276c-9.373-4.374-20.514-1.901-27.163 6.028s-7.148 19.338-1.217 27.815 16.813 11.91 26.532 8.368c9.72-3.541 15.852-13.173 14.951-23.483l6.684-4.821 1.853-10.509 10.5 1.852 1.853-10.509 7.876 1.389 9.265-6.493 2.316-13.136z" fill="#69e6ed" fill-rule="evenodd"/></g><g mask="url(#c)"><path d="m832.11 238.72-42.191-7.439-7.444 42.222 42.19 7.439z" fill="#fff"/><path clip-rule="evenodd" d="m819.226 197.751-37.699 26.276c-9.373-4.373-20.514-1.901-27.163 6.028s-7.148 19.338-1.217 27.815 16.813 11.91 26.532 8.368c9.719-3.541 15.852-13.173 14.951-23.483l6.684-4.821 1.853-10.509 10.5 1.852 1.853-10.509 7.876 1.389 9.265-6.493 2.316-13.136z" fill="#b8fcff" fill-rule="evenodd"/></g><g mask="url(#d)"><path d="m790.857 231.446-42.19-7.439-7.445 42.222 42.19 7.439z" fill="#69e6ed"/><path clip-rule="evenodd" d="m819.226 197.751-37.699 26.276c-9.373-4.374-20.514-1.901-27.163 6.028s-7.148 19.338-1.217 27.815 16.813 11.91 26.532 8.368c9.72-3.541 15.852-13.173 14.951-23.483l6.684-4.821 1.853-10.509 10.5 1.852 1.853-10.509 7.876 1.389 9.265-6.493 2.316-13.136z" fill="#fff" fill-rule="evenodd"/><path d="m768.731 253.859c4.349.767 8.498-2.14 9.265-6.493.768-4.353-2.136-8.503-6.486-9.27-4.349-.767-8.497 2.14-9.265 6.493-.767 4.353 2.136 8.503 6.486 9.27z" fill="#69e6ed"/></g><g mask="url(#e)"><path d="m839.389 197.436-42.19-7.439-7.445 42.222 42.19 7.439z" fill="#b8fcff"/><path clip-rule="evenodd" d="m819.226 197.751-37.699 26.276c-9.373-4.373-20.514-1.901-27.163 6.028s-7.148 19.338-1.217 27.815 16.813 11.91 26.532 8.368c9.72-3.541 15.852-13.173 14.951-23.483l6.684-4.821 1.853-10.509 10.5 1.852 1.853-10.509 7.876 1.389 9.265-6.493 2.316-13.136z" fill="#fff" fill-rule="evenodd"/></g><path clip-rule="evenodd" d="m784.019 292.156-1.985 11.26-11.251-1.984 1.985-11.259zm-20.623-3.636 3.637 12.25-11.251-1.983zm29.999 5.29c3.106.547 5.181 3.51 4.633 6.617l-.002.008c-.547 3.107-3.51 5.182-6.617 4.634s-5.181-3.511-4.633-6.618l.001-.008c.548-3.107 3.511-5.181 6.618-4.633z" fill="#16436c" fill-rule="evenodd"/></svg>